<?xml version="1.0" encoding="UTF-8" standalone="no"?>
<!-- Created with Inkscape (http://www.inkscape.org/) -->

<svg
   width="64.0px"
   height="64.0px"
   viewBox="0 0 64.0 64.0"
   version="1.1"
   id="SVGRoot"
   sodipodi:docname="logo.svg"
   inkscape:version="1.2.1 (9c6d41e410, 2022-07-14)"
   inkscape:export-filename="logo.ico"
   inkscape:export-xdpi="406"
   inkscape:export-ydpi="406"
   xmlns:inkscape="http://www.inkscape.org/namespaces/inkscape"
   xmlns:sodipodi="http://sodipodi.sourceforge.net/DTD/sodipodi-0.dtd"
   xmlns="http://www.w3.org/2000/svg"
   xmlns:svg="http://www.w3.org/2000/svg">
  <sodipodi:namedview
     id="namedview137"
     pagecolor="#ffffff"
     bordercolor="#999999"
     borderopacity="1"
     inkscape:showpageshadow="0"
     inkscape:pageopacity="0"
     inkscape:pagecheckerboard="0"
     inkscape:deskcolor="#d1d1d1"
     inkscape:document-units="px"
     showgrid="true"
     inkscape:zoom="7.6711963"
     inkscape:cx="26.136732"
     inkscape:cy="32.328726"
     inkscape:window-width="1920"
     inkscape:window-height="1048"
     inkscape:window-x="0"
     inkscape:window-y="0"
     inkscape:window-maximized="1"
     inkscape:current-layer="layer1">
    <inkscape:grid
       type="xygrid"
       id="grid260" />
  </sodipodi:namedview>
  <defs
     id="defs132" />
  <g
     inkscape:label="Ebene 1"
     inkscape:groupmode="layer"
     id="layer1">
    <g
       id="g2520"
       transform="matrix(1.1976329,0,0,1.1976329,-6.3242534,-6.3242534)">
      <circle
         style="fill:#916f6f;stroke:#000000;stroke-width:0.899528;stroke-linejoin:bevel;stroke-opacity:0.204509"
         id="path369"
         cx="32"
         cy="32"
         r="23.999067" />
      <path
         style="fill:#3771c8;stroke:#000000;stroke-width:0.899528;stroke-linejoin:bevel;stroke-opacity:0.204509"
         id="path968-5-2"
         sodipodi:type="arc"
         sodipodi:cx="31.999987"
         sodipodi:cy="40.001137"
         sodipodi:rx="15.997851"
         sodipodi:ry="15.997851"
         sodipodi:start="4.7393533"
         sodipodi:end="4.7311249"
         sodipodi:open="true"
         sodipodi:arc-type="arc"
         d="M 32.431306,24.009101 A 15.997851,15.997851 0 0 1 47.992876,40.399558 15.997851,15.997851 0 0 1 31.634466,55.994812 15.997851,15.997851 0 0 1 16.005593,39.668517 15.997851,15.997851 0 0 1 32.299704,24.006093" />
      <path
         id="path968-5-2-0"
         style="fill:#800080;stroke:#000000;stroke-width:0.899528;stroke-linejoin:bevel;stroke-opacity:0.204509"
         d="m 32.298828,24.005859 a 15.997851,15.997851 0 0 0 -8.482422,2.267579 15.997851,15.997851 0 0 0 -0.171875,1.841796 15.997851,15.997851 0 0 0 15.628907,16.326172 15.997851,15.997851 0 0 0 8.546874,-2.257812 15.997851,15.997851 0 0 0 0.171876,-1.783203 15.997851,15.997851 0 0 0 -15.560547,-16.390625 z" />
      <path
         id="path2193"
         style="fill:#89a02c;stroke:#000000;stroke-width:0.899528;stroke-linejoin:bevel;stroke-opacity:0.204509"
         d="M 24.748047,12.453125 A 15.997851,15.997851 0 0 0 8.453125,28.115234 15.997851,15.997851 0 0 0 24.082031,44.441406 15.997851,15.997851 0 0 0 31.888672,42.564453 15.997851,15.997851 0 0 1 31.119141,42.121094 15.997851,15.997851 0 0 1 29.326172,40.714844 15.997851,15.997851 0 0 1 27.75,39.068359 a 15.997851,15.997851 0 0 1 -1.326172,-1.853515 15.997851,15.997851 0 0 1 -1.050781,-2.023438 15.997851,15.997851 0 0 1 -0.75,-2.152344 15.997851,15.997851 0 0 1 -0.4375,-2.238281 15.997851,15.997851 0 0 1 -0.115235,-2.27539 15.997851,15.997851 0 0 1 0.208985,-2.271485 15.997851,15.997851 0 0 1 0.53125,-2.216797 15.997851,15.997851 0 0 1 0.839844,-2.11914 15.997851,15.997851 0 0 1 1.132812,-1.978516 15.997851,15.997851 0 0 1 1.400391,-1.796875 15.997851,15.997851 0 0 1 1.644531,-1.580078 15.997851,15.997851 0 0 1 1.851563,-1.330078 15.997851,15.997851 0 0 1 0.976562,-0.509766 15.997851,15.997851 0 0 0 -7.777344,-2.267578 z" />
      <path
         id="path2193-1"
         style="fill:#ffcc00;stroke:#000000;stroke-width:0.899528;stroke-linejoin:bevel;stroke-opacity:0.204509"
         d="m 24.748047,12.453125 a 15.997851,15.997851 0 0 0 -16.294922,15.662109 15.997851,15.997851 0 0 0 7.703125,14.011719 15.997851,15.997851 0 0 1 -0.150391,-2.458984 15.997851,15.997851 0 0 1 8.324219,-13.664063 15.997851,15.997851 0 0 1 0.480469,-1.966797 15.997851,15.997851 0 0 1 0.839844,-2.11914 15.997851,15.997851 0 0 1 1.132812,-1.978516 15.997851,15.997851 0 0 1 1.400391,-1.796875 15.997851,15.997851 0 0 1 1.644531,-1.580078 15.997851,15.997851 0 0 1 1.851563,-1.330078 15.997851,15.997851 0 0 1 0.976562,-0.509766 15.997851,15.997851 0 0 0 -7.777344,-2.267578 z" />
      <path
         id="path968-7"
         style="fill:#d40000;stroke:#000000;stroke-width:0.899528;stroke-linejoin:bevel;stroke-opacity:0.204509"
         d="m 39.851562,12.453125 a 15.997851,15.997851 0 0 0 -16.126953,13.867187 15.997851,15.997851 0 0 1 8.574219,-2.314453 l 0.132813,0.0039 A 15.997851,15.997851 0 0 1 47.992188,40.400391 15.997851,15.997851 0 0 1 47.824219,42.134766 15.997851,15.997851 0 0 0 55.544922,28.845703 15.997851,15.997851 0 0 0 39.984375,12.455078 Z" />
      <path
         id="path968"
         style="fill:#ff7f2a;stroke:#000000;stroke-width:0.899528;stroke-linejoin:bevel;stroke-opacity:0.204509"
         d="m 32.65625,14.722656 a 15.997851,15.997851 0 0 0 -0.976562,0.509766 15.997851,15.997851 0 0 0 -1.851563,1.330078 15.997851,15.997851 0 0 0 -1.644531,1.580078 15.997851,15.997851 0 0 0 -1.400391,1.796875 15.997851,15.997851 0 0 0 -1.132812,1.978516 15.997851,15.997851 0 0 0 -0.839844,2.11914 15.997851,15.997851 0 0 0 -0.480469,1.966797 15.997851,15.997851 0 0 1 7.96875,-1.998047 l 0.132813,0.0039 a 15.997851,15.997851 0 0 1 7.871093,2.322265 15.997851,15.997851 0 0 0 -7.646484,-11.609375 z" />
      <path
         id="path968-5-2-9"
         style="fill:#ffd5d5;stroke:#000000;stroke-width:0.899528;stroke-linejoin:bevel;stroke-opacity:0.204509"
         d="m 32.298828,24.005859 a 15.997851,15.997851 0 0 0 -8.482422,2.267579 15.997851,15.997851 0 0 0 -0.171875,1.841796 15.997851,15.997851 0 0 0 8.365235,14.386719 15.997851,15.997851 0 0 0 8.43164,-13.65625 15.997851,15.997851 0 0 0 -0.140625,-2.515625 15.997851,15.997851 0 0 0 -7.86914,-2.320312 z" />
    </g>
  </g>
</svg>
